<?xml version="1.0" ?><svg id="Layer_1" style="enable-background:new 0 0 1024 1024;" version="1.1" viewBox="0 0 1024 1024" xml:space="preserve" xmlns="http://www.w3.org/2000/svg" xmlns:xlink="http://www.w3.org/1999/xlink"><style type="text/css">
	.st0{fill:url(#SVGID_1_);}
	.st1{fill:#FFFFFF;}
	.st2{fill-rule:evenodd;clip-rule:evenodd;fill:#FFFFFF;}
</style><g><linearGradient gradientTransform="matrix(0.7071 0.7071 -0.7071 0.7071 252.5445 -130.9254)" gradientUnits="userSpaceOnUse" id="SVGID_1_" x1="276.7971" x2="999.08" y1="-90.2478" y2="632.035"><stop offset="0" style="stop-color:#60FC7C"/><stop offset="1" style="stop-color:#4AB161"/></linearGradient><path class="st0" d="M441.4,993.3L30.5,582.4c-38.9-38.9-38.9-102.5,0-141.4L441.4,30.2c38.9-38.9,102.5-38.9,141.4,0L993.6,441   c38.9,38.9,38.9,102.5,0,141.4L582.8,993.3C543.9,1032.2,480.3,1032.2,441.4,993.3z"/><path class="st1" d="M301.1,732.7l32.6-121.5c-18.4-33.3-28.1-70.5-28.1-108.4c0-123.7,100.6-224.3,224.3-224.3   c123.7,0,224.3,100.6,224.3,224.3c0,123.7-100.6,224.3-224.3,224.3c-37.1,0-73.8-9.4-106.6-27.2L301.1,732.7z M429.3,654.5l7.7,4.6   c28.2,16.8,60.3,25.7,92.9,25.7c100.3,0,181.9-81.6,181.9-181.9s-81.6-181.9-181.9-181.9c-100.3,0-181.9,81.6-181.9,181.9   c0,33.1,9.2,65.7,26.6,94.3l4.7,7.7l-18.2,67.8L429.3,654.5z"/><path class="st2" d="M613.3,534c-9.2-5.5-21.2-11.7-32.1-7.2c-8.3,3.4-13.7,16.5-19.1,23.1c-2.8,3.4-6.1,4-10.3,2.2   c-31.3-12.5-55.3-33.4-72.6-62.2c-2.9-4.5-2.4-8,1.1-12.2c5.2-6.1,11.8-13.1,13.2-21.4c1.4-8.3-2.5-18-5.9-25.3   c-4.4-9.4-9.3-22.9-18.7-28.2c-8.7-4.9-20.1-2.2-27.8,4.1c-13.3,10.9-19.8,27.9-19.6,44.8c0.1,4.8,0.6,9.6,1.8,14.2   c2.7,11.1,7.8,21.5,13.6,31.4c4.4,7.5,9.1,14.7,14.2,21.6c16.8,22.8,37.6,42.5,61.7,57.3c12.1,7.4,25,13.9,38.5,18.3   c15.1,5,28.5,10.2,44.8,7.1c17.1-3.2,33.9-13.8,40.6-30.2c2-4.9,3-10.3,1.9-15.4C636.2,545.5,621.9,539.2,613.3,534z"/></g></svg>